name Walk5.mot
datacolumns 19
datarows 22
range 2.67100000 2.69200000
endheader

                time	   L_ground_force_vx	   L_ground_force_vy	   L_ground_force_vz	   L_ground_force_px	   L_ground_force_py	   L_ground_force_pz	   R_ground_force_vx	   R_ground_force_vy	   R_ground_force_vz	   R_ground_force_px	   R_ground_force_py	   R_ground_force_pz	   L_ground_torque_x	   L_ground_torque_y	   L_ground_torque_z	   R_ground_torque_x	   R_ground_torque_y	   R_ground_torque_z	
          2.67100000	         28.38748351	        958.04084121	         65.65678357	         -0.23271238	          0.00000000	         -0.04040858	          0.00000000	          0.00000000	          0.00000000	          0.00000000	          0.00000000	          0.00000000	          0.00000000	         -2.16880828	          0.00000000	          0.00000000	          0.00000000	          0.00000000	
          2.67200000	         28.99847189	        958.41004582	         65.72562296	         -0.23240646	          0.00000000	         -0.04051017	          0.00000000	          0.00000000	          0.00000000	          0.00000000	          0.00000000	          0.00000000	          0.00000000	         -2.16399177	          0.00000000	          0.00000000	          0.00000000	          0.00000000	
          2.67300000	         29.60163202	        958.84516796	         65.82591150	         -0.23208942	          0.00000000	         -0.04056154	          0.00000000	          0.00000000	          0.00000000	          0.00000000	          0.00000000	          0.00000000	          0.00000000	         -2.14777422	          0.00000000	          0.00000000	          0.00000000	          0.00000000	
          2.67400000	         30.20613573	        959.32555298	         65.95047136	         -0.23175282	          0.00000000	         -0.04056437	          0.00000000	          0.00000000	          0.00000000	          0.00000000	          0.00000000	          0.00000000	          0.00000000	         -2.12300999	          0.00000000	          0.00000000	          0.00000000	          0.00000000	
          2.67500000	         30.82015492	        959.83506094	         66.07804349	         -0.23140475	          0.00000000	         -0.04054230	          0.00000000	          0.00000000	          0.00000000	          0.00000000	          0.00000000	          0.00000000	          0.00000000	         -2.09174441	          0.00000000	          0.00000000	          0.00000000	          0.00000000	
          2.67600000	         31.44281240	        960.36068572	         66.18862748	         -0.23106015	          0.00000000	         -0.04052704	          0.00000000	          0.00000000	          0.00000000	          0.00000000	          0.00000000	          0.00000000	          0.00000000	         -2.05573182	          0.00000000	          0.00000000	          0.00000000	          0.00000000	
          2.67700000	         32.06295974	        960.88750739	         66.27817917	         -0.23072788	          0.00000000	         -0.04054823	          0.00000000	          0.00000000	          0.00000000	          0.00000000	          0.00000000	          0.00000000	          0.00000000	         -2.01910012	          0.00000000	          0.00000000	          0.00000000	          0.00000000	
          2.67800000	         32.67365791	        961.41624301	         66.35785339	         -0.23041227	          0.00000000	         -0.04061142	          0.00000000	          0.00000000	          0.00000000	          0.00000000	          0.00000000	          0.00000000	          0.00000000	         -1.98921059	          0.00000000	          0.00000000	          0.00000000	          0.00000000	
          2.67900000	         33.28038241	        961.95741697	         66.44305718	         -0.23011658	          0.00000000	         -0.04068642	          0.00000000	          0.00000000	          0.00000000	          0.00000000	          0.00000000	          0.00000000	          0.00000000	         -1.97301164	          0.00000000	          0.00000000	          0.00000000	          0.00000000	
          2.68000000	         33.88758578	        962.50515480	         66.53893679	         -0.22983944	          0.00000000	         -0.04073378	          0.00000000	          0.00000000	          0.00000000	          0.00000000	          0.00000000	          0.00000000	          0.00000000	         -1.97117953	          0.00000000	          0.00000000	          0.00000000	          0.00000000	
          2.68100000	         34.49194504	        963.04160496	         66.63386783	         -0.22956866	          0.00000000	         -0.04074324	          0.00000000	          0.00000000	          0.00000000	          0.00000000	          0.00000000	          0.00000000	          0.00000000	         -1.97593859	          0.00000000	          0.00000000	          0.00000000	          0.00000000	
          2.68200000	         35.09615798	        963.55520514	         66.71496671	         -0.22928444	          0.00000000	         -0.04073539	          0.00000000	          0.00000000	          0.00000000	          0.00000000	          0.00000000	          0.00000000	          0.00000000	         -1.97763491	          0.00000000	          0.00000000	          0.00000000	          0.00000000	
          2.68300000	         35.71137621	        964.03685306	         66.78746839	         -0.22897433	          0.00000000	         -0.04073101	          0.00000000	          0.00000000	          0.00000000	          0.00000000	          0.00000000	          0.00000000	          0.00000000	         -1.97222186	          0.00000000	          0.00000000	          0.00000000	          0.00000000	
          2.68400000	         36.33987757	        964.47814434	         66.86982912	         -0.22864168	          0.00000000	         -0.04073953	          0.00000000	          0.00000000	          0.00000000	          0.00000000	          0.00000000	          0.00000000	          0.00000000	         -1.95996982	          0.00000000	          0.00000000	          0.00000000	          0.00000000	
          2.68500000	         36.97018057	        964.89784317	         66.97303316	         -0.22829778	          0.00000000	         -0.04076899	          0.00000000	          0.00000000	          0.00000000	          0.00000000	          0.00000000	          0.00000000	          0.00000000	         -1.94056838	          0.00000000	          0.00000000	          0.00000000	          0.00000000	
          2.68600000	         37.59143028	        965.34431827	         67.09003226	         -0.22794925	          0.00000000	         -0.04082675	          0.00000000	          0.00000000	          0.00000000	          0.00000000	          0.00000000	          0.00000000	          0.00000000	         -1.91177778	          0.00000000	          0.00000000	          0.00000000	          0.00000000	
          2.68700000	         38.20333120	        965.84688812	         67.20417976	         -0.22759516	          0.00000000	         -0.04090980	          0.00000000	          0.00000000	          0.00000000	          0.00000000	          0.00000000	          0.00000000	          0.00000000	         -1.87335515	          0.00000000	          0.00000000	          0.00000000	          0.00000000	
          2.68800000	         38.81087810	        966.40333927	         67.30684253	         -0.22723739	          0.00000000	         -0.04099973	          0.00000000	          0.00000000	          0.00000000	          0.00000000	          0.00000000	          0.00000000	          0.00000000	         -1.83132587	          0.00000000	          0.00000000	          0.00000000	          0.00000000	
          2.68900000	         39.41618915	        967.02046274	         67.40449338	         -0.22688801	          0.00000000	         -0.04107353	          0.00000000	          0.00000000	          0.00000000	          0.00000000	          0.00000000	          0.00000000	          0.00000000	         -1.79433862	          0.00000000	          0.00000000	          0.00000000	          0.00000000	
          2.69000000	         40.01816097	        967.70333501	         67.50765882	         -0.22655882	          0.00000000	         -0.04112217	          0.00000000	          0.00000000	          0.00000000	          0.00000000	          0.00000000	          0.00000000	          0.00000000	         -1.76635798	          0.00000000	          0.00000000	          0.00000000	          0.00000000	
          2.69100000	         40.61506889	        968.40877972	         67.61994480	         -0.22624886	          0.00000000	         -0.04115532	          0.00000000	          0.00000000	          0.00000000	          0.00000000	          0.00000000	          0.00000000	          0.00000000	         -1.74525629	          0.00000000	          0.00000000	          0.00000000	          0.00000000	
          2.69200000	         41.20826432	        969.06817904	         67.73746454	         -0.22594601	          0.00000000	         -0.04119085	          0.00000000	          0.00000000	          0.00000000	          0.00000000	          0.00000000	          0.00000000	          0.00000000	         -1.72653282	          0.00000000	          0.00000000	          0.00000000	          0.00000000	
